<svg xmlns="http://www.w3.org/2000/svg" viewBox="0 0 1284.01 1429.06"><defs><style>.cls-1{fill:#fff;}</style></defs><title>Mikazuki 2 WhiteAsset 3</title><g id="Layer_2" data-name="Layer 2"><g id="Layer_1-2" data-name="Layer 1"><path class="cls-1" d="M1120.66,1060.38A604.31,604.31,0,0,0,1221,966.62a646.14,646.14,0,0,1-185.57,214.81c-287.78,213.5-694.14,153.29-907.65-134.49S-25.5,352.79,262.28,139.28a646.37,646.37,0,0,1,257-114.83,604.77,604.77,0,0,0-116.8,68C135.21,290.71,79.28,668.15,277.6,935.46S853.35,1258.7,1120.66,1060.38Z"/><path class="cls-1" d="M1220.49,375c135.37,244,47.28,551.62-196.75,687s-551.61,47.29-687-196.75A506.19,506.19,0,0,1,288.86,745a470.36,470.36,0,0,0,36.08,82.77C450.68,1054.46,736.37,1136.28,963,1010.53s308.49-411.43,182.75-638.1C1029.16,162.21,775,76.57,557.84,165.6,797.63,48.87,1089.57,139,1220.49,375Z"/><polygon class="cls-1" points="743.87 0 739.99 46.34 779.46 70.92 733.12 67.03 708.55 106.51 712.43 60.17 672.95 35.59 719.29 39.48 743.87 0"/><polygon class="cls-1" points="855.9 36.64 853.55 64.73 877.48 79.63 849.39 77.27 834.49 101.2 836.84 73.11 812.91 58.21 841 60.57 855.9 36.64"/><polygon class="cls-1" points="929.63 75.87 928.04 94.96 944.3 105.09 925.21 103.49 915.08 119.75 916.68 100.66 900.41 90.53 919.51 92.13 929.63 75.87"/><polygon class="cls-1" points="536.52 1429.06 540.4 1382.72 500.93 1358.14 547.27 1362.03 571.85 1322.55 567.96 1368.89 607.44 1393.46 561.1 1389.58 536.52 1429.06"/><polygon class="cls-1" points="424.49 1392.42 426.84 1364.33 402.92 1349.43 431 1351.79 445.9 1327.86 443.55 1355.95 467.48 1370.85 439.39 1368.49 424.49 1392.42"/><polygon class="cls-1" points="350.76 1353.19 352.36 1334.1 336.09 1323.97 355.18 1325.57 365.31 1309.3 363.71 1328.4 379.98 1338.53 360.88 1336.93 350.76 1353.19"/><polygon class="cls-1" points="611.94 589.34 600.77 605.59 424.81 589.78 601.34 573.91 611.94 589.34"/><polygon class="cls-1" points="662.63 538.65 646.08 527.27 661.76 352.83 677.54 528.4 662.63 538.65"/><polygon class="cls-1" points="662.63 640.03 677.61 650.33 661.76 826.74 646.01 651.46 662.63 640.03"/><polygon class="cls-1" points="716.48 606.16 681.3 609.32 678.34 642.26 662.47 631.35 645.26 643.18 642.22 609.32 608.38 606.28 620.2 589.08 609.28 573.2 642.22 570.24 645.38 535.06 662.47 546.81 678.22 535.98 681.3 570.24 715.57 573.32 704.74 589.08 716.48 606.16"/><polygon class="cls-1" points="898.72 589.78 724.4 605.45 713.33 589.34 723.83 574.06 898.72 589.78"/><polygon class="cls-1" points="716.48 606.16 797.71 724.33 678.34 642.26 662.47 631.35 645.26 643.18 527.22 724.33 608.38 606.28 620.2 589.08 609.28 573.2 527.22 453.83 645.38 535.06 662.47 546.81 678.22 535.98 797.71 453.83 715.57 573.32 704.74 589.08 716.48 606.16"/><polygon class="cls-1" points="716.48 606.16 797.71 724.33 678.34 642.26 662.47 631.35 645.26 643.18 527.22 724.33 608.38 606.28 620.2 589.08 609.28 573.2 527.22 453.83 645.38 535.06 662.47 546.81 678.22 535.98 797.71 453.83 715.57 573.32 704.74 589.08 716.48 606.16"/></g></g></svg>