<svg xmlns="http://www.w3.org/2000/svg" xmlns:xlink="http://www.w3.org/1999/xlink" viewBox="0 0 1351 1351"><defs><linearGradient id="linear-gradient" x1="1404.63" y1="1155.83" x2="11.06" y2="239.7" gradientTransform="matrix(1, 0, 0, -1, 0, 1352)" gradientUnits="userSpaceOnUse"><stop offset="0" stop-color="#fffb00"/><stop offset="0.27" stop-color="#ffda00"/><stop offset="0.56" stop-color="#ffbc00"/><stop offset="0.82" stop-color="#fa0"/><stop offset="1" stop-color="#ffa300"/></linearGradient><linearGradient id="linear-gradient-2" x1="1347.74" y1="1226.52" x2="173.58" y2="300.74" gradientTransform="matrix(1, 0, 0, -1, 0, 1352)" gradientUnits="userSpaceOnUse"><stop offset="0" stop-color="#2aa3ff"/><stop offset="0.11" stop-color="#4888f0"/><stop offset="0.33" stop-color="#7d58d4"/><stop offset="0.54" stop-color="#a732be"/><stop offset="0.73" stop-color="#c517af"/><stop offset="0.89" stop-color="#d706a5"/><stop offset="1" stop-color="#de00a2"/></linearGradient><linearGradient id="linear-gradient-3" x1="806.14" y1="819.06" x2="1039.12" y2="1061.95" gradientTransform="matrix(1, 0, 0, -1, 0, 1352)" gradientUnits="userSpaceOnUse"><stop offset="0" stop-color="#a90600"/><stop offset="0.12" stop-color="#a3050b"/><stop offset="0.47" stop-color="#910229"/><stop offset="0.78" stop-color="#87013b"/><stop offset="1" stop-color="#830042"/></linearGradient><linearGradient id="linear-gradient-4" x1="810.52" y1="1096.65" x2="1097.09" y2="1096.65" gradientTransform="matrix(0.71, 0.71, 0.71, -0.71, -522.97, 508.06)" gradientUnits="userSpaceOnUse"><stop offset="0" stop-color="#d41700"/><stop offset="0.11" stop-color="#d7130a"/><stop offset="0.47" stop-color="#e10928"/><stop offset="0.78" stop-color="#e7023a"/><stop offset="1" stop-color="#e90041"/></linearGradient></defs><title>Mikazuki Asset</title><g id="Layer_2" data-name="Layer 2"><g id="Layer_1-2" data-name="Layer 1"><g id="Layer_2-2" data-name="Layer 2"><g id="Layer_1-2-2" data-name="Layer 1-2"><path d="M1153.15,1153.15c-263.8,263.8-691.51,263.8-955.3,0s-263.8-691.5,0-955.3C426.69-31,778.9-61.32,1040.44,106.89c-208-118.47-477.4-89-654.86,88.49-212.83,212.83-212.83,557.91,0,770.75s557.91,212.83,770.75,0c176.43-176.44,206.61-443.76,90.51-651.28C1412,575.94,1380.75,925.56,1153.15,1153.15Z" style="fill:url(#linear-gradient)"/><path d="M1127.29,937.4c-197,197-516.52,197-713.56,0s-197-516.52,0-713.57C594.26,43.3,877.56,28.17,1075.31,178.46,929.86,78.63,729.44,93.35,600.19,222.6c-145.86,145.86-145.86,382.35,0,528.21s382.35,145.86,528.21,0c129.36-129.36,144-330,43.88-475.5C1323,473.09,1308,756.71,1127.29,937.4Z" style="fill:url(#linear-gradient-2)"/><polygon points="926.4 230.06 989.16 344.82 1103.91 407.58 989.16 470.34 926.4 585.09 863.63 470.34 748.88 407.58 863.63 344.82 926.4 230.06" style="fill:url(#linear-gradient-3)"/><polygon points="1028.24 305.73 998.57 407.05 1028.24 508.37 926.92 478.69 825.61 508.37 855.28 407.05 825.61 305.73 926.92 335.41 1028.24 305.73" style="fill:url(#linear-gradient-4)"/></g></g></g></g></svg>