<svg xmlns="http://www.w3.org/2000/svg" xmlns:xlink="http://www.w3.org/1999/xlink" viewBox="0 0 1284.01 1429.06"><defs><style>.cls-1{fill:url(#linear-gradient);}.cls-2{fill:url(#linear-gradient-2);}.cls-3{fill:url(#linear-gradient-3);}.cls-4{fill:url(#linear-gradient-4);}.cls-5{fill:url(#linear-gradient-5);}.cls-6{fill:url(#linear-gradient-6);}.cls-7{fill:url(#linear-gradient-7);}.cls-8{fill:url(#linear-gradient-8);}.cls-9{fill:url(#linear-gradient-9);}.cls-10{fill:url(#linear-gradient-10);}</style><linearGradient id="linear-gradient" x1="404.95" y1="1226.93" x2="631.74" y2="96.2" gradientTransform="translate(-272.53 509.74) rotate(-36.57)" gradientUnits="userSpaceOnUse"><stop offset="0" stop-color="#28003f"/><stop offset="1" stop-color="#c22aff"/></linearGradient><linearGradient id="linear-gradient-2" x1="704.18" y1="1202.08" x2="908.6" y2="205.51" gradientTransform="translate(486.63 1644.06) rotate(-114.66)" gradientUnits="userSpaceOnUse"><stop offset="0" stop-color="#00327f"/><stop offset="1" stop-color="#2a8bff"/></linearGradient><linearGradient id="linear-gradient-3" x1="729.28" y1="24.13" x2="760.97" y2="54.42" gradientTransform="translate(30.47 -220.18) rotate(18.35)" gradientUnits="userSpaceOnUse"><stop offset="0" stop-color="#fff315"/><stop offset="1" stop-color="#ff7800"/></linearGradient><linearGradient id="linear-gradient-4" x1="853.91" y1="8.01" x2="873.12" y2="26.37" xlink:href="#linear-gradient-3"/><linearGradient id="linear-gradient-5" x1="939.58" y1="14.32" x2="952.63" y2="26.81" xlink:href="#linear-gradient-3"/><linearGradient id="linear-gradient-6" x1="183.63" y1="1304.26" x2="215.31" y2="1334.55" gradientTransform="translate(329.06 2692.54) rotate(-161.65)" xlink:href="#linear-gradient-3"/><linearGradient id="linear-gradient-7" x1="308.26" y1="1288.14" x2="327.46" y2="1306.5" gradientTransform="translate(329.06 2692.54) rotate(-161.65)" xlink:href="#linear-gradient-3"/><linearGradient id="linear-gradient-8" x1="393.92" y1="1294.46" x2="406.98" y2="1306.94" gradientTransform="translate(329.06 2692.54) rotate(-161.65)" xlink:href="#linear-gradient-3"/><linearGradient id="linear-gradient-9" x1="567.78" y1="727.01" x2="783.78" y2="411.65" gradientUnits="userSpaceOnUse"><stop offset="0" stop-color="#ba29ff"/><stop offset="1" stop-color="#0097bf"/></linearGradient><linearGradient id="linear-gradient-10" x1="787.8" y1="515.85" x2="531.48" y2="665.61" gradientTransform="matrix(1, 0, 0, 1, 0, 0)" xlink:href="#linear-gradient-3"/></defs><title>Mikazuki 2 Asset 2</title><g id="Layer_2" data-name="Layer 2"><g id="Layer_1-2" data-name="Layer 1"><path class="cls-1" d="M1120.66,1060.38A604.31,604.31,0,0,0,1221,966.62a646.14,646.14,0,0,1-185.57,214.81c-287.78,213.5-694.14,153.29-907.65-134.49S-25.5,352.79,262.28,139.28a646.37,646.37,0,0,1,257-114.83,604.77,604.77,0,0,0-116.8,68C135.21,290.71,79.28,668.15,277.6,935.46S853.35,1258.7,1120.66,1060.38Z"/><path class="cls-2" d="M1220.49,375c135.37,244,47.28,551.62-196.75,687s-551.61,47.29-687-196.75A506.19,506.19,0,0,1,288.86,745a470.36,470.36,0,0,0,36.08,82.77C450.68,1054.46,736.37,1136.28,963,1010.53s308.49-411.43,182.75-638.1C1029.16,162.21,775,76.57,557.84,165.6,797.63,48.87,1089.57,139,1220.49,375Z"/><polygon class="cls-3" points="743.87 0 739.99 46.34 779.46 70.92 733.12 67.03 708.55 106.51 712.43 60.17 672.95 35.59 719.29 39.48 743.87 0"/><polygon class="cls-4" points="855.9 36.64 853.55 64.73 877.48 79.63 849.39 77.27 834.49 101.2 836.84 73.11 812.91 58.21 841 60.57 855.9 36.64"/><polygon class="cls-5" points="929.63 75.87 928.04 94.96 944.3 105.09 925.21 103.49 915.08 119.75 916.68 100.66 900.41 90.53 919.51 92.13 929.63 75.87"/><polygon class="cls-6" points="536.52 1429.06 540.4 1382.72 500.93 1358.14 547.27 1362.03 571.85 1322.55 567.96 1368.89 607.44 1393.46 561.1 1389.58 536.52 1429.06"/><polygon class="cls-7" points="424.49 1392.42 426.84 1364.33 402.92 1349.43 431 1351.79 445.9 1327.86 443.55 1355.95 467.48 1370.85 439.39 1368.49 424.49 1392.42"/><polygon class="cls-8" points="350.76 1353.19 352.36 1334.1 336.09 1323.97 355.18 1325.57 365.31 1309.3 363.71 1328.4 379.98 1338.53 360.88 1336.93 350.76 1353.19"/><polygon class="cls-9" points="661.77 352.83 681.3 570.25 898.72 589.78 681.3 609.32 661.77 826.74 642.23 609.32 424.81 589.78 642.23 570.25 661.77 352.83"/><polygon class="cls-10" points="797.72 453.83 704.74 589.08 797.72 724.33 662.47 631.35 527.22 724.33 620.2 589.08 527.22 453.83 662.47 546.81 797.72 453.83"/></g></g></svg>