<svg xmlns="http://www.w3.org/2000/svg" xmlns:xlink="http://www.w3.org/1999/xlink" viewBox="0 0 1400 1400"><defs><linearGradient id="linear-gradient" x1="1326.8" y1="40.77" x2="169.04" y2="1246.05" gradientUnits="userSpaceOnUse"><stop offset="0.39" stop-color="#ff3faf"/><stop offset="0.98" stop-color="#6a0029"/></linearGradient><linearGradient id="linear-gradient-2" x1="1385.44" y1="31.41" x2="-20" y2="1402.29" gradientUnits="userSpaceOnUse"><stop offset="0.49" stop-color="#55a2ff"/><stop offset="0.95" stop-color="#002d6a"/></linearGradient><linearGradient id="linear-gradient-3" x1="959.04" y1="238.14" x2="1002.38" y2="172.85" gradientTransform="translate(-112.59 389.02) rotate(-26.29)" gradientUnits="userSpaceOnUse"><stop offset="0.18" stop-color="#ffee2a"/><stop offset="1" stop-color="#ffb115"/></linearGradient><linearGradient id="linear-gradient-4" x1="846.41" y1="206.17" x2="879.31" y2="156.61" gradientTransform="translate(-69.98 522.41) rotate(-35.36)" xlink:href="#linear-gradient-3"/><linearGradient id="linear-gradient-5" x1="746.96" y1="194.9" x2="773.98" y2="154.2" gradientTransform="translate(-38.06 595.35) rotate(-41.27)" xlink:href="#linear-gradient-3"/><linearGradient id="linear-gradient-6" x1="656.53" y1="199.21" x2="679.38" y2="164.79" gradientTransform="translate(-7.51 653.62) rotate(-46.77)" xlink:href="#linear-gradient-3"/><linearGradient id="linear-gradient-7" x1="586.74" y1="209.96" x2="605.52" y2="181.67" gradientTransform="translate(80.61 781.77) rotate(-61.09)" xlink:href="#linear-gradient-3"/><linearGradient id="linear-gradient-8" x1="521.11" y1="220.47" x2="534.77" y2="199.9" gradientTransform="translate(193.96 889.87) rotate(-77.15)" xlink:href="#linear-gradient-3"/><linearGradient id="linear-gradient-9" x1="462.4" y1="219.77" x2="474.01" y2="202.27" gradientTransform="translate(266.45 937.29) rotate(-87.05)" xlink:href="#linear-gradient-3"/><linearGradient id="linear-gradient-10" x1="832.01" y1="-106.71" x2="875.35" y2="-172" gradientTransform="matrix(0.44, -0.9, -0.9, -0.44, 739.88, 1241.5)" xlink:href="#linear-gradient-3"/><linearGradient id="linear-gradient-11" x1="775.31" y1="-154.39" x2="808.22" y2="-203.96" gradientTransform="matrix(0.58, -0.82, -0.82, -0.58, 606.49, 1198.88)" xlink:href="#linear-gradient-3"/><linearGradient id="linear-gradient-12" x1="713.35" y1="-171.06" x2="740.38" y2="-211.76" gradientTransform="matrix(0.66, -0.75, -0.75, -0.66, 533.55, 1166.96)" xlink:href="#linear-gradient-3"/><linearGradient id="linear-gradient-13" x1="658.16" y1="-168.29" x2="681.01" y2="-202.71" gradientTransform="matrix(0.73, -0.68, -0.68, -0.73, 475.29, 1136.41)" xlink:href="#linear-gradient-3"/><linearGradient id="linear-gradient-14" x1="679.24" y1="-145.71" x2="698.02" y2="-174" gradientTransform="matrix(0.88, -0.48, -0.48, -0.88, 347.14, 1048.29)" xlink:href="#linear-gradient-3"/><linearGradient id="linear-gradient-15" x1="708.37" y1="-95.74" x2="722.03" y2="-116.32" gradientTransform="matrix(0.97, -0.22, -0.22, -0.97, 239.03, 934.94)" xlink:href="#linear-gradient-3"/><linearGradient id="linear-gradient-16" x1="701.24" y1="-59.54" x2="712.86" y2="-77.04" gradientTransform="matrix(1, -0.05, -0.05, -1, 191.61, 862.45)" xlink:href="#linear-gradient-3"/></defs><title>Mikazuki 3 SVG</title><g id="Layer_2" data-name="Layer 2"><g id="Layer_1-2" data-name="Layer 1"><path d="M1296.35,464.25A541.69,541.69,0,0,1,1314.75,565c3.38,133.23-45.77,267.54-147.45,369.23C970.48,1131,651.36,1131,454.54,934.21s-196.83-515.94,0-712.77C558.89,117.09,697.62,68.06,834.28,74.36a542,542,0,0,1,86,16.36C801.56,79.9,679.07,119.94,588.18,210.84c-162.46,162.45-162.46,425.85,0,588.31s425.85,162.46,588.31,0C1268.1,707.54,1308.05,583.84,1296.35,464.25Z" style="fill:url(#linear-gradient)"/><path d="M1332.51,439.34a542,542,0,0,1,18.4,100.73c13.26,153.48-38.84,311.53-156.29,429-211.08,211.08-553.3,211.08-764.38,0s-211.08-553.3,0-764.38c120.31-120.31,283.24-172,440.2-155.21a539.07,539.07,0,0,1,318.89,150A699.59,699.59,0,0,0,1034.82,85.06q-8.55-4.66-17.21-9.06C754.72-57.89,424.92-14.87,205,205c-273.37,273.37-273.37,716.59,0,990s716.58,273.37,990,0c221-221,263.34-553.09,127-816.65q-3.42-6.58-7-13.14a699.89,699.89,0,0,0-117.85-158A538,538,0,0,1,1332.51,439.34Z" style="fill:url(#linear-gradient-2)"/><polygon points="851.23 132.38 872.69 97.73 868.69 138.3 903.35 159.77 862.78 155.76 841.31 190.42 845.31 149.85 810.66 128.38 851.23 132.38" style="fill:url(#linear-gradient-3)"/><polygon points="733.07 166.91 745.02 138.36 746.88 169.25 775.42 181.2 744.53 183.06 732.58 211.6 730.73 180.71 702.18 168.76 733.07 166.91" style="fill:url(#linear-gradient-4)"/><polygon points="643.73 222.1 651.08 197.77 655.21 222.85 679.54 230.19 654.46 234.32 647.11 258.65 642.99 233.57 618.65 226.22 643.73 222.1" style="fill:url(#linear-gradient-5)"/><polygon points="578.22 289.59 582.43 268.52 587.93 289.29 609.01 293.5 588.24 299.01 584.02 320.08 578.52 299.31 557.45 295.1 578.22 289.59" style="fill:url(#linear-gradient-6)"/><polygon points="536.3 353.86 535.37 336.22 543.98 351.64 561.62 350.71 546.2 359.32 547.13 376.96 538.52 361.54 520.88 362.47 536.3 353.86" style="fill:url(#linear-gradient-7)"/><polygon points="513.44 422.19 509.24 410.05 518.36 419.1 530.5 414.9 521.45 424.02 525.65 436.16 516.53 427.11 504.39 431.31 513.44 422.19" style="fill:url(#linear-gradient-8)"/><polygon points="498.93 481.23 493.63 471.67 502.6 477.92 512.15 472.63 505.91 481.59 511.2 491.15 502.24 484.9 492.68 490.19 498.93 481.23" style="fill:url(#linear-gradient-9)"/><polygon points="1249.42 544.33 1284.07 522.86 1243.5 526.86 1222.04 492.21 1226.04 532.78 1191.38 554.24 1231.95 550.24 1253.42 584.89 1249.42 544.33" style="fill:url(#linear-gradient-10)"/><polygon points="1214.89 662.48 1243.44 650.53 1212.55 648.68 1200.6 620.13 1198.74 651.02 1170.2 662.97 1201.09 664.83 1213.04 693.37 1214.89 662.48" style="fill:url(#linear-gradient-11)"/><polygon points="1159.7 751.82 1184.03 744.47 1158.95 740.35 1151.61 716.02 1147.48 741.09 1123.15 748.44 1148.23 752.57 1155.58 776.9 1159.7 751.82" style="fill:url(#linear-gradient-12)"/><polygon points="1092.21 817.34 1113.28 813.13 1092.51 807.62 1088.3 786.55 1082.79 807.32 1061.72 811.53 1082.49 817.04 1086.7 838.11 1092.21 817.34" style="fill:url(#linear-gradient-13)"/><polygon points="1027.94 859.25 1045.58 860.18 1030.16 851.57 1031.09 833.93 1022.48 849.36 1004.84 848.43 1020.26 857.04 1019.33 874.68 1027.94 859.25" style="fill:url(#linear-gradient-14)"/><polygon points="959.61 882.12 971.75 886.32 962.7 877.2 966.9 865.05 957.78 874.1 945.64 869.9 954.69 879.02 950.49 891.16 959.61 882.12" style="fill:url(#linear-gradient-15)"/><polygon points="900.57 896.63 910.13 901.92 903.88 892.96 909.17 883.4 900.21 889.65 890.65 884.35 896.9 893.32 891.61 902.87 900.57 896.63" style="fill:url(#linear-gradient-16)"/></g></g></svg>